<svg xmlns="http://www.w3.org/2000/svg" viewBox="45.365 37.938 60.055 60.055" width="100%" height="100%" preserveAspectRatio="xMidYMid meet" role="img" aria-label="ZG grape logo">
<title>zg grape logo</title>
<g fill="currentColor" color="#231F20">
<path d="M62.199 77.243C64.602 77.887 67.071 76.462 67.715 74.059C68.359 71.657 66.933 69.188 64.531 68.544C62.129 67.901 59.659 69.326 59.016 71.728C58.372 74.13 59.797 76.6 62.199 77.243ZM78.445 72.868C80.847 73.512 83.316 72.086 83.96 69.684C84.604 67.282 83.178 64.813 80.776 64.169C78.374 63.525 75.905 64.951 75.261 67.353C74.617 69.755 76.043 72.224 78.445 72.868ZM71.586 79.759C73.988 80.403 76.457 78.977 77.101 76.575C77.745 74.173 76.319 71.703 73.917 71.059C71.515 70.416 69.046 71.841 68.402 74.244C67.758 76.646 69.184 79.115 71.586 79.759ZM57.87 93.398C60.272 94.042 62.741 92.616 63.385 90.214C64.029 87.812 62.603 85.343 60.201 84.699C57.799 84.055 55.33 85.481 54.686 87.883C54.042 90.285 55.468 92.754 57.87 93.398ZM65.571 61.517C66.768 56.34 69.215 53.17 72.781 51.798C76.911 50.207 82.497 51.085 89.337 54.088C89.611 54.209 89.735 54.53 89.614 54.804C89.492 55.078 89.172 55.202 88.897 55.081C82.325 52.195 77.015 51.329 73.172 52.809C69.808 54.104 67.533 57.242 66.48 62.448C66.288 62.649 66.111 62.865 65.952 63.097C65.909 62.548 65.779 62.016 65.571 61.517ZM55.209 40.225C59.782 39.854 63.192 41.051 65.485 43.75C67.748 46.413 68.883 50.522 68.939 56.014C68.941 56.314 68.7 56.559 68.4 56.562L68.385 56.562C62.887 56.462 58.906 55.147 56.566 52.518C54.209 49.87 53.547 45.947 54.705 40.652C54.758 40.407 54.969 40.237 55.209 40.225ZM64.657 44.457C62.664 42.112 59.687 41.036 55.683 41.281C54.721 46.008 55.32 49.484 57.375 51.792C59.425 54.096 62.951 55.292 67.843 55.461C67.722 50.517 66.673 46.83 64.657 44.457ZM59.693 67.846C62.096 68.49 64.565 67.064 65.209 64.662C65.853 62.26 64.427 59.791 62.025 59.147C59.623 58.503 57.153 59.929 56.51 62.331C55.866 64.733 57.291 67.202 59.693 67.846ZM89.231 77.218C89.286 77.435 89.25 77.68 89.123 77.952C88.924 78.332 88.76 78.613 88.634 78.795C88.199 79.411 87.818 79.936 87.492 80.371C87.13 80.842 86.541 81.608 85.725 82.668C85.523 82.93 85.333 83.177 85.155 83.409L84.076 82.854L84.502 82.274C84.593 82.147 84.629 82.047 84.611 81.975C84.484 82.102 84.421 82.165 84.421 82.165C84.255 82.382 84.096 82.589 83.946 82.786L83.086 82.344C83.318 82.053 83.446 81.894 83.469 81.866C83.868 81.359 84.466 80.625 85.263 79.664C86.06 78.704 86.513 78.16 86.622 78.034C86.64 78.015 86.794 77.807 87.084 77.408C87.012 77.336 86.894 77.318 86.731 77.354C86.024 77.517 85.535 77.635 85.263 77.707C84.067 78.034 83.07 78.369 82.273 78.713C81.893 78.858 81.53 79.03 81.186 79.229C81.059 79.32 80.851 79.492 80.561 79.746C80.416 79.873 80.343 80 80.343 80.126C80.506 80.38 80.597 80.525 80.615 80.562C80.47 80.579 80.389 80.589 80.37 80.589C80.207 80.534 80.08 80.443 79.99 80.317C79.501 79.574 79.464 78.903 79.881 78.305C80.117 77.943 80.425 77.626 80.805 77.354C81.367 76.955 82.056 76.593 82.871 76.267C84.031 75.796 85.263 75.488 86.568 75.342C87.148 75.288 87.619 75.297 87.981 75.37C88.307 75.46 88.552 75.578 88.715 75.723C88.842 75.832 88.933 75.977 88.987 76.158C89.041 76.285 89.091 76.471 89.137 76.715C89.182 76.96 89.213 77.127 89.231 77.218ZM82.654 77.598C82.744 77.562 83.406 77.309 84.638 76.837C84.547 76.837 84.439 76.856 84.312 76.892C83.297 77.164 82.364 77.517 81.512 77.952C81.168 78.133 80.914 78.332 80.751 78.55C81.548 78.115 82.183 77.798 82.654 77.598ZM103.937 84.177C103.991 84.285 103.982 84.394 103.91 84.503C103.783 84.72 103.719 84.838 103.719 84.856C102.832 86.252 102.198 87.891 101.817 89.776C101.675 90.442 101.555 91.119 101.456 91.806L99.51 90.804C99.526 90.672 99.598 90.149 99.724 89.232C99.724 89.232 99.724 89.169 99.724 89.042C99.67 89.042 99.588 89.105 99.479 89.232C99.192 89.59 98.875 89.944 98.526 90.297L97.408 89.721C98.457 88.726 99.41 87.593 100.267 86.324C100.322 86.233 100.331 86.17 100.295 86.134C99.322 87.398 98.285 88.555 97.182 89.605L95.946 88.968C96.794 88.237 97.582 87.5 98.31 86.759C98.419 86.632 98.637 86.387 98.963 86.025C98.963 86.025 98.999 85.962 99.071 85.835C98.908 85.835 98.827 85.844 98.827 85.862C98.338 85.916 97.776 85.989 97.142 86.079C97.033 86.097 96.915 86.125 96.788 86.161C96.534 86.215 96.353 86.125 96.244 85.889C96.226 85.871 96.181 85.78 96.109 85.617C95.964 85.309 96.027 85.056 96.299 84.856C96.48 84.729 96.671 84.62 96.87 84.53C97.866 84.059 98.591 83.733 99.044 83.552C100.494 82.935 101.481 82.5 102.007 82.247C102.08 82.192 102.166 82.161 102.265 82.151C102.365 82.142 102.442 82.142 102.496 82.151C102.551 82.161 102.641 82.179 102.768 82.206C102.895 82.233 102.967 82.247 102.985 82.247C103.221 82.301 103.43 82.464 103.611 82.736C103.538 82.899 103.475 83.053 103.421 83.198C103.457 83.198 103.493 83.203 103.529 83.212C103.565 83.221 103.602 83.23 103.638 83.239C103.674 83.248 103.711 83.252 103.747 83.252C103.783 83.542 103.801 83.705 103.801 83.742C103.819 83.832 103.865 83.977 103.937 84.177ZM89.589 85.693C89.852 84.969 90.176 84.21 90.563 83.415C91.415 81.658 92.557 80 93.988 78.441C94.713 77.626 95.447 76.946 96.19 76.403C96.734 75.986 97.277 75.669 97.821 75.451C98.473 75.198 99.071 75.17 99.615 75.37C99.615 75.37 99.651 75.37 99.724 75.37C99.887 75.152 99.968 75.044 99.968 75.044C100.204 74.735 100.412 74.518 100.594 74.391C100.829 74.246 101.101 74.237 101.409 74.364C101.481 74.4 101.545 74.464 101.599 74.554C101.618 74.608 101.64 74.681 101.667 74.772C101.695 74.862 101.717 74.935 101.735 74.989C101.826 75.17 101.835 75.361 101.762 75.56C101.563 76.122 101.436 76.466 101.382 76.593C101.346 76.72 101.241 76.987 101.069 77.395C100.897 77.802 100.766 78.124 100.675 78.359C100.639 78.468 100.539 78.84 100.376 79.474C100.285 79.8 100.258 80.208 100.295 80.697C100.313 80.951 100.304 81.123 100.267 81.214C100.086 81.304 99.932 81.286 99.805 81.159C99.697 81.069 99.588 80.942 99.479 80.779C99.461 80.743 99.425 80.675 99.37 80.575C99.316 80.475 99.28 80.398 99.262 80.344C98.99 79.945 98.845 79.465 98.827 78.903C98.809 78.378 98.854 77.87 98.963 77.381C98.963 77.381 98.99 77.218 99.044 76.892C98.772 77.073 98.637 77.173 98.637 77.191C98.057 77.589 97.413 78.188 96.706 78.985C95.746 80.054 94.804 81.368 93.88 82.926C93.101 84.231 92.521 85.327 92.14 86.215C92.047 86.438 91.96 86.657 91.878 86.872L89.589 85.693ZM97.332 76.81C96.68 77.318 96.1 77.916 95.592 78.604C95.882 78.296 96.036 78.133 96.054 78.115C96.217 77.97 96.371 77.825 96.516 77.68C96.698 77.517 96.87 77.372 97.033 77.245C97.196 77.1 97.368 76.964 97.549 76.837C97.622 76.801 97.717 76.742 97.835 76.661C97.953 76.579 98.029 76.53 98.066 76.511C98.102 76.493 98.161 76.461 98.242 76.416C98.324 76.371 98.396 76.325 98.46 76.28C98.523 76.235 98.591 76.176 98.664 76.103C98.501 76.158 98.419 76.185 98.419 76.185C98.02 76.348 97.658 76.556 97.332 76.81ZM84.78 83.895C84.408 84.378 84.098 84.78 83.85 85.101C83.505 85.536 82.21 87.257 79.963 90.265C79.963 90.284 79.872 90.41 79.691 90.646C79.818 90.628 79.908 90.609 79.963 90.591C81.72 90.211 82.627 90.012 82.681 89.994C83.442 89.83 84.357 89.767 85.426 89.803C85.698 89.821 86.16 89.857 86.812 89.912C86.939 89.93 87.093 89.966 87.274 90.021C87.746 90.147 88.036 90.428 88.144 90.863C88.163 90.918 88.185 91.008 88.212 91.135C88.239 91.262 88.253 91.334 88.253 91.352C88.163 91.461 88.031 91.52 87.859 91.529C87.687 91.538 87.13 91.633 86.187 91.815C85.934 91.869 85.494 91.955 84.869 92.073C84.244 92.191 83.759 92.286 83.415 92.358C81.476 92.739 79.727 93.255 78.169 93.908C78.114 93.926 78.001 93.971 77.829 94.044C77.657 94.116 77.525 94.17 77.435 94.207C77.253 94.279 77.081 94.333 76.918 94.37C76.647 94.406 76.429 94.392 76.266 94.329C76.103 94.266 75.931 94.116 75.749 93.88C75.749 93.862 75.786 93.726 75.858 93.473L75.641 93.473C75.459 93.255 75.369 93.137 75.369 93.119C75.097 92.811 75.079 92.485 75.315 92.141C75.55 91.815 75.867 91.398 76.266 90.89C76.52 90.564 76.887 90.102 77.367 89.504C77.847 88.906 78.178 88.499 78.359 88.281C80.506 85.583 81.976 83.736 82.771 82.739L83.612 83.223C82.714 84.399 82.122 85.179 81.838 85.563C81.059 86.56 80.425 87.484 79.936 88.335C79.917 88.335 79.854 88.444 79.745 88.662C79.836 88.589 79.881 88.553 79.881 88.553C80.153 88.136 80.995 86.994 82.409 85.128C82.522 84.973 82.968 84.364 83.748 83.301L84.78 83.895ZM101.269 93.388L99.45 92.341C99.465 92.851 99.52 93.319 99.615 93.745C99.651 93.908 99.742 94.161 99.887 94.506C99.959 94.687 100.059 94.904 100.186 95.158C100.258 95.285 100.34 95.407 100.431 95.525C100.521 95.643 100.63 95.711 100.757 95.729C100.92 95.765 101.056 95.729 101.164 95.62C101.201 95.511 101.219 95.448 101.219 95.43C101.219 95.394 101.219 95.294 101.219 95.131C101.219 94.406 101.219 94.026 101.219 93.989C101.234 93.788 101.251 93.588 101.269 93.388ZM97.523 91.232L96.419 90.596C96.063 90.89 95.697 91.169 95.32 91.434C95.23 91.489 94.922 91.67 94.396 91.978C94.396 91.996 94.324 92.032 94.179 92.086C94.88 91.587 95.56 91.051 96.219 90.481L94.988 89.772C94.343 90.309 93.783 90.718 93.309 90.999C92.838 91.271 92.358 91.47 91.868 91.597C91.542 91.688 91.261 91.615 91.026 91.38C90.953 90.854 90.971 90.293 91.08 89.694C91.174 89.109 91.331 88.476 91.552 87.794L89.316 86.507C89.222 86.815 89.139 87.117 89.068 87.411C88.887 88.263 88.815 89.051 88.851 89.776C88.906 90.628 89.187 91.334 89.694 91.896C89.784 92.023 89.884 92.177 89.993 92.358C90.446 93.119 91.116 93.59 92.004 93.772C92.403 93.844 92.883 93.817 93.445 93.69C94.17 93.527 94.876 93.21 95.565 92.739C96.283 92.242 96.936 91.739 97.523 91.232Z"/>
<path d="M50.319 65.333C52.721 65.977 55.19 64.552 55.834 62.15C56.478 59.748 55.053 57.279 52.65 56.635C50.248 55.991 47.779 57.416 47.135 59.819C46.492 62.221 47.917 64.69 50.319 65.333ZM52.695 74.693C55.098 75.337 57.567 73.911 58.21 71.509C58.854 69.107 57.429 66.638 55.026 65.994C52.624 65.35 50.155 66.776 49.511 69.178C48.868 71.58 50.293 74.049 52.695 74.693ZM62.199 77.243C64.602 77.887 67.071 76.462 67.715 74.059C68.359 71.657 66.933 69.188 64.531 68.544C62.129 67.901 59.659 69.326 59.016 71.728C58.372 74.13 59.797 76.6 62.199 77.243ZM55.329 84.133C57.731 84.777 60.2 83.351 60.844 80.949C61.488 78.547 60.062 76.078 57.66 75.434C55.258 74.79 52.789 76.216 52.145 78.618C51.501 81.02 52.927 83.489 55.329 84.133ZM78.445 72.868C80.847 73.512 83.316 72.086 83.96 69.684C84.604 67.282 83.178 64.813 80.776 64.169C78.374 63.525 75.905 64.951 75.261 67.353C74.617 69.755 76.043 72.224 78.445 72.868ZM71.586 79.759C73.988 80.403 76.457 78.977 77.101 76.575C77.745 74.173 76.319 71.703 73.917 71.059C71.515 70.416 69.046 71.841 68.402 74.244C67.758 76.646 69.184 79.115 71.586 79.759ZM64.704 86.646C67.107 87.289 69.576 85.864 70.22 83.462C70.863 81.06 69.438 78.59 67.036 77.946C64.633 77.302 62.164 78.728 61.52 81.13C60.877 83.532 62.302 86.002 64.704 86.646ZM57.87 93.398C60.272 94.042 62.741 92.616 63.385 90.214C64.029 87.812 62.603 85.343 60.201 84.699C57.799 84.055 55.33 85.481 54.686 87.883C54.042 90.285 55.468 92.754 57.87 93.398ZM59.693 67.846C62.096 68.49 64.565 67.064 65.209 64.662C65.853 62.26 64.427 59.791 62.025 59.147C59.623 58.503 57.153 59.929 56.51 62.331C55.866 64.733 57.291 67.202 59.693 67.846ZM69.069 70.358C71.471 71.002 73.941 69.577 74.584 67.174C75.228 64.772 73.803 62.303 71.401 61.659C68.998 61.016 66.529 62.441 65.885 64.843C65.241 67.245 66.667 69.715 69.069 70.358Z" fill="none" stroke="currentColor" stroke-width="0.363"/>
</g>
</svg>
